<svg xmlns="http://www.w3.org/2000/svg" xmlns:xlink="http://www.w3.org/1999/xlink" version="1.1" x="0px" y="0px" viewBox="0 0 52 52" xml:space="preserve"><style type="text/css">
</style><g><g>
<path fill="#6d6e6f" stroke-width="0" stroke="#6d6e6f" d="M26,50c-4.9624023,0-9-4.0375977-9-9V9h-3V2h24v7h-3v32C35,45.9624023,30.9624023,50,26,50z M16,7h3v34    c0,3.8598633,3.1401367,7,7,7s7-3.1401367,7-7V7h3V4H16V7z"/></g><g><rect fill="#6d6e6f" x="30" y="13" width="4" height="2"/></g><g><rect fill="#6d6e6f" x="27" y="18" width="7" height="2"/></g><g><rect fill="#6d6e6f" x="30" y="23" width="4" height="2"/></g><g><rect fill="#6d6e6f" x="27" y="28" width="7" height="2"/></g><g><rect fill="#6d6e6f" x="30" y="33" width="4" height="2"/></g><g><rect fill="#6d6e6f" x="27" y="38" width="7" height="2"/></g></g></svg>