<?xml version="1.0" encoding="UTF-8" standalone="no"?>
<svg
   xmlns:dc="http://purl.org/dc/elements/1.1/"
   xmlns:cc="http://creativecommons.org/ns#"
   xmlns:rdf="http://www.w3.org/1999/02/22-rdf-syntax-ns#"
   xmlns:svg="http://www.w3.org/2000/svg"
   xmlns="http://www.w3.org/2000/svg"
   height="32"
   viewBox="0 0 32 32"
   width="32"
   version="1.1"
   id="svg4">
  <metadata
     id="metadata10">
    <rdf:RDF>
      <cc:Work
         rdf:about="">
        <dc:format>image/svg+xml</dc:format>
        <dc:type
           rdf:resource="http://purl.org/dc/dcmitype/StillImage" />
      </cc:Work>
    </rdf:RDF>
  </metadata>
  <defs
     id="defs8" />
  <path
     class="heroicon-ui"
     fill="#9fa0a5"
     d="M19 6.41L8.7 16.71a1 1 0 1 1-1.4-1.42L17.58 5H14a1 1 0 0 1 0-2h6a1 1 0 0 1 1 1v6a1 1 0 0 1-2 0V6.41zM17 14a1 1 0 0 1 2 0v5a2 2 0 0 1-2 2H5a2 2 0 0 1-2-2V7c0-1.1.9-2 2-2h5a1 1 0 0 1 0 2H5v12h12v-5z"
     id="path2" />
</svg>
